Coordinates
version=1
nRows=6
nColumns=34
inDegrees=yes

Units are S.I. units (second, meters, Newtons, ...)
Angles are in degrees.

endheader
time	pelvis_tilt	pelvis_list	pelvis_rotation	pelvis_tx	pelvis_ty	pelvis_tz	hip_flexion_r	hip_adduction_r	hip_rotation_r	knee_angle_r	ankle_angle_r	subtalar_angle_r	mtp_angle_r	hip_flexion_l	hip_adduction_l	hip_rotation_l	knee_angle_l	socket_flexion	socket_adduction	socket_rotation	socket_tx	socket_ty	socket_tz	pros_ankle_rx	pros_ankle_ry	pros_ankle_rz	pros_ankle_tx	pros_ankle_ty	pros_ankle_tz	foot_flex	lumbar_extension	lumbar_bending	lumbar_rotation
      0.00000000	     -5.92057177	     -8.89742834	     -7.23550715	     -0.76174156	      1.03742480	      0.32323080	    -15.46222795	     10.07901079	     -3.60911901	     -4.09886643	     -0.05940591	     25.24926851	     37.48280700	     27.01392301	     -9.03813116	     -1.37378939	     -1.87095694	      0.00000000	      0.00000000	      0.00000000	      0.00000000	      0.00000000	      0.00000000	      0.00000000	      0.00000000	      0.00000000	      0.00000000	      0.00000000	      0.00000000	      0.22213981	     -4.35740840	      5.86222738	    -15.59354466
      0.00416667	     -5.91590218	     -8.91389975	     -7.31625869	     -0.75651750	      1.03639011	      0.32349329	    -15.67306983	     10.02229440	     -3.55913752	     -4.26207228	     -0.08080827	     25.26533309	     37.49144284	     27.09393931	     -9.00636023	     -1.32977842	     -2.07910381	      0.00000000	      0.00000000	      0.00000000	      0.00000000	      0.00000000	      0.00000000	      0.00000000	      0.00000000	      0.00000000	      0.00000000	      0.00000000	      0.00000000	     -0.05644955	     -4.31678026	      5.84295991	    -15.58023381
      0.00833333	     -5.89454302	     -8.90694523	     -7.51981194	     -0.75117603	      1.03547886	      0.32395099	    -15.79972540	      9.89998796	     -3.42685225	     -4.64846745	     -0.04371131	     25.40693085	     37.68706194	     27.06864729	     -9.00585369	     -1.43286590	     -2.16599710	      0.00000000	      0.00000000	      0.00000000	      0.00000000	      0.00000000	      0.00000000	      0.00000000	      0.00000000	      0.00000000	      0.00000000	      0.00000000	      0.00000000	     -0.56767257	     -4.38378040	      5.72026097	    -15.26851694
      0.01250000	     -5.87366583	     -8.91976293	     -7.57746419	     -0.74558603	      1.03442534	      0.32416828	    -16.01726168	      9.83851900	     -3.34467005	     -4.86417722	     -0.07687391	     25.44015729	     37.71782917	     27.14649370	     -8.95483724	     -1.38797441	     -2.42262015	      0.00000000	      0.00000000	      0.00000000	      0.00000000	      0.00000000	      0.00000000	      0.00000000	      0.00000000	      0.00000000	      0.00000000	      0.00000000	      0.00000000	     -0.93409802	     -4.34670657	      5.67819507	    -15.23606231
      0.01666667	     -5.86635759	     -8.92394231	     -7.66649890	     -0.73985276	      1.03337233	      0.32445995	    -16.20924353	      9.76084081	     -3.25807220	     -5.11590044	     -0.11741274	     25.47882951	     37.76393298	     27.21523503	     -8.91403110	     -1.34085104	     -2.67076746	      0.00000000	      0.00000000	      0.00000000	      0.00000000	      0.00000000	      0.00000000	      0.00000000	      0.00000000	      0.00000000	      0.00000000	      0.00000000	      0.00000000	     -1.36540719	     -4.33797730	      5.60606528	    -15.17875089
      0.02083333	     -5.84939037	     -8.91730810	     -7.76218214	     -0.73400356	      1.03234945	      0.32481289	    -16.39572018	      9.67052808	     -3.16804005	     -5.38827567	     -0.16434838	     25.51780412	     37.81524795	     27.27698850	     -8.87520472	     -1.30828635	     -2.96956447	      0.00000000	      0.00000000	      0.00000000	      0.00000000	      0.00000000	      0.00000000	      0.00000000	      0.00000000	      0.00000000	      0.00000000	      0.00000000	      0.00000000	     -1.78912228	     -4.33034425	      5.52453494	    -15.11168236
